
<svg width="148px" height="61px" viewBox="0 0 148 61" version="1.1" xmlns="http://www.w3.org/2000/svg" xmlns:xlink="http://www.w3.org/1999/xlink">
    <defs>
        <linearGradient x1="21.4330136%" y1="10.7692731%" x2="91.6023238%" y2="86.4532484%" id="linearGradient-1">
            <stop stop-color="#71CEEA" offset="0%"></stop>
            <stop stop-color="#FAE230" offset="100%"></stop>
        </linearGradient>
    </defs>
    <g id="Maketing-Site" stroke="none" stroke-width="1" fill="none" fill-rule="evenodd">
        <g id="Marketing-Homepage" transform="translate(-1212.000000, -4232.000000)" fill-rule="nonzero">
            <g id="Footer" transform="translate(81.000000, 4231.000000)">
                <g id="Logo" transform="translate(1131.000000, 0.000000)">
                    <path d="M0,46 C0,41.78 3.42,39.54 10.56,38.57 L14.37,38.1 L14.37,37.1 C14.403683,36.3418575 14.1044479,35.6068399 13.5508092,35.0878035 C12.9971704,34.5687672 12.2443955,34.3175255 11.49,34.4 C10.6831494,34.3274023 9.88514498,34.6129493 9.30751732,35.1809498 C8.72988967,35.7489503 8.43097209,36.5420433 8.49,37.35 L0.89,37.35 C0.89,32.49 5.07,29.35 11.58,29.35 C18.09,29.35 22.31,32.47 22.31,37.35 L22.31,51.7 L14.37,51.7 L14.37,49.12 L13.94,49.12 C12.72,51.12 10.1,52.21 7.27,52.21 C3,52.21 0,49.93 0,46 Z M14.37,43.59 L14.37,42.23 L10.86,42.74 C8.54,43.04 7.61,43.93 7.61,45.19 C7.61,46.45 8.61,47.43 10.35,47.43 C11.410393,47.4888063 12.4472073,47.1023507 13.2104094,46.3638293 C13.9736116,45.6253078 14.393929,44.6017527 14.37,43.54 L14.37,43.59 Z" id="Shape" fill="#252359"></path>
                    <path d="M51.13,40.8 C51.13,47.73 47.2,52.25 41.5,52.25 C38.9997816,52.3599714 36.6137848,51.1970802 35.16,49.16 L34.74,49.16 L34.74,61.42 L26.83,61.42 L26.83,29.9 L34.74,29.9 L34.74,32.43 L35.16,32.43 C36.591383,30.3945176 38.9643919,29.2325355 41.45,29.35 C47.24,29.35 51.13,33.78 51.13,40.8 Z M34.4,40.8 C34.3149491,42.0273231 34.7360989,43.2359534 35.5654508,44.144651 C36.3948026,45.0533485 37.5600326,45.5828702 38.79,45.61 C41.37,45.61 43.19,43.54 43.19,40.8 C43.19,38.06 41.37,36 38.79,36 C37.5618926,36.0272747 36.3983175,36.5554232 35.5692772,37.461891 C34.7402368,38.3683588 34.3178032,39.5743429 34.4,40.8 L34.4,40.8 Z" id="Shape" fill="#252359"></path>
                    <path d="M79.32,40.8 C79.32,47.73 75.39,52.25 69.68,52.25 C67.1801671,52.3581169 64.795008,51.195634 63.34,49.16 L62.92,49.16 L62.92,61.42 L55,61.42 L55,29.9 L62.9,29.9 L62.9,32.43 L63.32,32.43 C64.7570917,30.3958523 67.1320882,29.2347429 69.62,29.35 C75.43,29.35 79.32,33.78 79.32,40.8 Z M62.58,40.8 C62.4947501,42.0324292 62.9199135,43.2457071 63.7557988,44.155347 C64.5916842,45.064987 65.7647723,45.5909827 67,45.61 C69.57,45.61 71.39,43.54 71.39,40.8 C71.39,38.06 69.55,36 67,36 C65.7666325,36.019175 64.5952077,36.5438019 63.7596378,37.4512081 C62.9240679,38.3586144 62.4976165,39.5692376 62.58,40.8 Z" id="Shape" fill="#252359"></path>
                    <polygon id="Path" fill="#252359" points="83.2 20.18 91.11 20.18 91.11 51.7 83.2 51.7"></polygon>
                    <path d="M95.46,23.18 C95.3988361,21.3456863 96.4577779,19.6580332 98.1360416,18.9151479 C99.8143054,18.1722626 101.775554,18.5230252 103.092294,19.8015566 C104.409035,21.0800879 104.817382,23.0301606 104.124224,24.7295665 C103.431067,26.4289725 101.775319,27.5371376 99.94,27.53 C98.7551377,27.5976279 97.5961664,27.165576 96.7447159,26.3388328 C95.8932655,25.5120896 95.4272822,24.3663397 95.46,23.18 L95.46,23.18 Z M96,29.9 L103.9,29.9 L103.9,51.7 L96,51.7 L96,29.9 Z" id="Shape" fill="#252359"></path>
                    <path d="M107.88,40.8 C107.88,33.66 112.66,29.35 120.22,29.35 C127.78,29.35 132.52,33.7 132.52,40.8 C132.52,47.9 127.7,52.25 120.22,52.25 C112.74,52.25 107.88,47.9 107.88,40.8 Z M124.62,40.8 C124.62,37.97 122.8,35.98 120.22,35.98 C117.64,35.98 115.83,37.98 115.83,40.8 C115.83,43.62 117.6,45.61 120.22,45.61 C122.84,45.61 124.62,43.63 124.62,40.8 L124.62,40.8 Z" id="Shape" fill="#252359"></path>
                    <path d="M135.18,47.9 C135.106546,46.0896126 136.140507,44.4162133 137.792452,43.6719162 C139.444396,42.927619 141.382872,43.2617621 142.69029,44.5161767 C143.997708,45.7705914 144.411744,47.6935878 143.73641,49.3749037 C143.061077,51.0562197 141.431876,52.1585105 139.62,52.16 C138.45462,52.2268507 137.313986,51.8056911 136.471686,50.9975383 C135.629386,50.1893855 135.161409,49.0671481 135.18,47.9 Z" id="Path" fill="#26235A"></path>
                    <path d="M147,10.13 L131.31,1.26 C130.691198,0.90273441 129.928802,0.90273441 129.31,1.26 L113.61,10.13 C112.817575,10.5790362 112.428624,11.506762 112.663891,12.3866602 C112.899158,13.2665585 113.699214,13.8763678 114.61,13.87 L116.61,13.87 L116.61,26.73 C117.799102,26.471103 119.013056,26.3436714 120.23,26.35 L120.61,26.35 L120.61,13.87 L120.61,13.87 L120.61,11.31 L130.32,5.82 L140,11.31 L140,13.87 L140,13.87 L140,35.23 L134.23,35.23 C134.853428,36.4822911 135.243143,37.8378198 135.38,39.23 L141,39.23 C142.656854,39.23 144,37.8868542 144,36.23 L144,13.87 L146,13.87 C146.932627,13.9007152 147.762557,13.2824175 148,12.38 C148.222546,11.4893809 147.810207,10.5616177 147,10.13 Z" id="Path" fill="url(#linearGradient-1)"></path>
                    <path d="M129.36,15.37 L125.29,15.37 C124.754102,15.37 124.258911,15.0841016 123.990962,14.62 C123.723013,14.1558984 123.723013,13.5841016 123.990962,13.12 C124.258911,12.6558984 124.754102,12.37 125.29,12.37 L129.36,12.37 C130.188427,12.37 130.86,13.0415729 130.86,13.87 C130.86,14.6984271 130.188427,15.37 129.36,15.37 L129.36,15.37 Z" id="Path" fill="#252359"></path>
                    <path d="M132.36,20.37 L125.29,20.37 C124.461573,20.37 123.79,19.6984271 123.79,18.87 C123.79,18.0415729 124.461573,17.37 125.29,17.37 L132.36,17.37 C133.188427,17.37 133.86,18.0415729 133.86,18.87 C133.86,19.6984271 133.188427,20.37 132.36,20.37 Z" id="Path" fill="#252359"></path>
                    <path d="M135.36,25.37 L125.29,25.37 C124.461573,25.37 123.79,24.6984271 123.79,23.87 C123.79,23.0415729 124.461573,22.37 125.29,22.37 L135.36,22.37 C136.188427,22.37 136.86,23.0415729 136.86,23.87 C136.86,24.6984271 136.188427,25.37 135.36,25.37 L135.36,25.37 Z" id="Path" fill="#252359"></path>
                </g>
            </g>
        </g>
    </g>
</svg>