
<svg width="522px" height="620px" viewBox="0 0 522 620" version="1.1" xmlns="http://www.w3.org/2000/svg" xmlns:xlink="http://www.w3.org/1999/xlink">
    <defs>
        <filter x="-46.5%" y="-43.1%" width="193.1%" height="186.2%" filterUnits="objectBoundingBox" id="filter-1">
            <feOffset dx="10" dy="20" in="SourceAlpha" result="shadowOffsetOuter1"></feOffset>
            <feGaussianBlur stdDeviation="25" in="shadowOffsetOuter1" result="shadowBlurOuter1"></feGaussianBlur>
            <feColorMatrix values="0 0 0 0 0   0 0 0 0 0   0 0 0 0 0  0 0 0 0.2 0" type="matrix" in="shadowBlurOuter1" result="shadowMatrixOuter1"></feColorMatrix>
            <feMerge>
                <feMergeNode in="shadowMatrixOuter1"></feMergeNode>
                <feMergeNode in="SourceGraphic"></feMergeNode>
            </feMerge>
        </filter>
        <polygon id="path-2" points="0 0 288 0 288 311 0 311"></polygon>
        <filter x="-82.7%" y="-77.0%" width="265.4%" height="254.0%" filterUnits="objectBoundingBox" id="filter-4">
            <feOffset dx="10" dy="20" in="SourceAlpha" result="shadowOffsetOuter1"></feOffset>
            <feGaussianBlur stdDeviation="25" in="shadowOffsetOuter1" result="shadowBlurOuter1"></feGaussianBlur>
            <feColorMatrix values="0 0 0 0 0   0 0 0 0 0   0 0 0 0 0  0 0 0 0.2 0" type="matrix" in="shadowBlurOuter1" result="shadowMatrixOuter1"></feColorMatrix>
            <feMerge>
                <feMergeNode in="shadowMatrixOuter1"></feMergeNode>
                <feMergeNode in="SourceGraphic"></feMergeNode>
            </feMerge>
        </filter>
        <polygon id="path-5" points="0 0 162 0 162 174 0 174"></polygon>
        <filter x="-43.1%" y="-39.9%" width="186.2%" height="179.8%" filterUnits="objectBoundingBox" id="filter-7">
            <feOffset dx="10" dy="20" in="SourceAlpha" result="shadowOffsetOuter1"></feOffset>
            <feGaussianBlur stdDeviation="25" in="shadowOffsetOuter1" result="shadowBlurOuter1"></feGaussianBlur>
            <feColorMatrix values="0 0 0 0 0   0 0 0 0 0   0 0 0 0 0  0 0 0 0.2 0" type="matrix" in="shadowBlurOuter1" result="shadowMatrixOuter1"></feColorMatrix>
            <feMerge>
                <feMergeNode in="shadowMatrixOuter1"></feMergeNode>
                <feMergeNode in="SourceGraphic"></feMergeNode>
            </feMerge>
        </filter>
        <linearGradient x1="15.0109245%" y1="17.8023872%" x2="85.0132643%" y2="93.3677911%" id="linearGradient-8">
            <stop stop-color="#71CEEA" offset="0%"></stop>
            <stop stop-color="#FAE230" offset="100%"></stop>
        </linearGradient>
    </defs>
    <g id="Maketing-Site" stroke="none" stroke-width="1" fill="none" fill-rule="evenodd">
        <g id="Marketing-Homepage" transform="translate(-918.000000, -872.000000)">
            <g id="Watermark" transform="translate(955.000000, 899.000000)">
                <g id="Group-3" filter="url(#filter-1)">
                    <mask id="mask-3" fill="white">
                        <use xlink:href="#path-2"></use>
                    </mask>
                    <g id="Clip-2"></g>
                    <path d="M279.728838,74.1075625 L152.000801,2.09531519 C147.047517,-0.698438398 140.971814,-0.698438398 136.002263,2.09531519 L8.27422648,74.1075625 C1.83251705,77.7378179 -1.34767031,85.24197 0.539295082,92.3806602 C2.418127,99.5193503 8.87610337,104.497754 16.269429,104.497754 L32.3330352,104.497754 L31.8450269,270.393116 C31.8450269,273.121899 32.1378319,275.785711 32.6502406,278.360187 L32.6502406,286.63587 C32.6502406,300.036141 43.6304271,311 57.0506551,311 L230.944276,311 C239.43562,311 246.926547,306.598214 251.302355,299.979292 C254.035201,296.048545 255.661896,291.289419 255.661896,286.140466 L255.661896,275.265942 L255.661896,104.497754 L271.733635,104.497754 C279.118827,104.497754 285.584937,99.5193503 287.463769,92.3806602 C289.342601,85.24197 286.170547,77.7378179 279.728838,74.1075625" id="Fill-1" fill="#FFFFFF" mask="url(#mask-3)"></path>
                </g>
                <g id="Group-3" filter="url(#filter-4)" transform="translate(279.000000, 349.000000)">
                    <mask id="mask-6" fill="white">
                        <use xlink:href="#path-5"></use>
                    </mask>
                    <g id="Clip-2"></g>
                    <path d="M157.347471,41.4621089 L85.5004507,1.17229853 C82.7142284,-0.390766177 79.2966454,-0.390766177 76.5012729,1.17229853 L4.65425239,41.4621089 C1.03079084,43.4931843 -0.758064547,47.6916488 0.303353483,51.6856427 C1.36019644,55.6796365 4.99280814,58.4649815 9.15155379,58.4649815 L18.1873323,58.4649815 L17.9128276,151.281036 C17.9128276,152.807751 18.0775304,154.298115 18.3657603,155.738497 L18.3657603,160.368622 C18.3657603,167.86588 24.5421152,174 32.0909935,174 L129.906155,174 C134.682536,174 138.896183,171.537264 141.357575,167.834073 C142.894801,165.634878 143.809816,162.972215 143.809816,160.09145 L143.809816,154.007312 L143.809816,58.4649815 L152.85017,58.4649815 C157.00434,58.4649815 160.641527,55.6796365 161.69837,51.6856427 C162.755213,47.6916488 160.970933,43.4931843 157.347471,41.4621089" id="Fill-1" fill="#5952A2" mask="url(#mask-6)"></path>
                </g>
                <g id="Asset-5" filter="url(#filter-7)" transform="translate(101.000000, 98.000000)" fill-rule="nonzero">
                    <path d="M146.845827,140 L111.154173,140 C103.889324,140 98,134.179702 98,127 C98,119.820298 103.889324,114 111.154173,114 L146.845827,114 C154.110676,114 160,119.820298 160,127 C160,134.179702 154.110676,140 146.845827,140 Z" id="Path" fill="#252359"></path>
                    <path d="M173.891758,185 L112.108242,185 C104.86876,185 99,179.179702 99,172 C99,164.820298 104.86876,159 112.108242,159 L173.891758,159 C181.13124,159 187,164.820298 187,172 C187,179.179702 181.13124,185 173.891758,185 Z" id="Path" fill="#252359"></path>
                    <path d="M199.916603,229 L112.083397,229 C104.857636,229 99,223.179702 99,216 C99,208.820298 104.857636,203 112.083397,203 L199.916603,203 C207.142364,203 213,208.820298 213,216 C213,223.179702 207.142364,229 199.916603,229 L199.916603,229 Z" id="Path" fill="#252359"></path>
                    <path d="M302.094818,80.1701134 L164.236858,2.35080286 C158.803304,-0.783600955 152.108889,-0.783600955 146.675334,2.35080286 L8.9051819,80.1701134 C1.94708397,84.10965 -1.46820102,92.2488811 0.597621643,99.9685061 C2.66344431,107.688131 9.68855011,113.038181 17.6859437,112.982314 L35.2474673,112.982314 L34.5450063,292.133421 C34.5331079,295.076124 34.7976912,298.013446 35.3352749,300.906737 L35.3352749,309.680053 C35.3352749,324.216158 47.1291178,336 61.6775603,336 L249.410247,336 C264.003664,335.62142 275.662656,323.739333 275.752533,309.153654 L275.752533,112.982314 L293.314056,112.982314 C301.31145,113.038181 308.336556,107.688131 310.402378,99.9685061 C312.468201,92.2488811 309.052916,84.10965 302.094818,80.1701134 Z M241.244139,295.291815 C240.398269,297.98536 238.306844,300.107661 235.624451,300.99447 L79.1512762,301.520869 C74.3017954,301.520869 70.3705144,297.592922 70.3705144,292.747553 L70.3705144,113.596446 L70.3705144,113.596446 L70.3705144,91.136758 L155.631711,42.9712547 L240.805101,91.136758 L240.805101,113.596446 L240.805101,113.596446 L241.244139,295.291815 Z" id="Shape" fill="url(#linearGradient-8)"></path>
                </g>
            </g>
        </g>
    </g>
</svg>