
<svg width="120px" height="50px" viewBox="0 0 120 50" version="1.1" xmlns="http://www.w3.org/2000/svg" xmlns:xlink="http://www.w3.org/1999/xlink">
    <defs>
        <linearGradient x1="21.509652%" y1="10.7692731%" x2="91.4907146%" y2="86.4532484%" id="linearGradient-1">
            <stop stop-color="#71CEEA" offset="0%"></stop>
            <stop stop-color="#FAE230" offset="100%"></stop>
        </linearGradient>
    </defs>
    <g id="Maketing-Site" stroke="none" stroke-width="1" fill="none" fill-rule="evenodd">
        <g id="Marketing-Homepage" transform="translate(-80.000000, -40.000000)" fill-rule="nonzero">
            <g id="Header" transform="translate(80.000000, -258.000000)">
                <g id="Logo" transform="translate(0.000000, 298.000000)">
                    <path d="M0,37.0967742 C0,33.6935484 2.75436242,31.8870968 8.50469799,31.1048387 L11.5731544,30.7258065 L11.5731544,29.9193548 C11.6002816,29.3079496 11.3592869,28.7151934 10.9134034,28.2966158 C10.4675198,27.8780381 9.86125809,27.6754238 9.25369128,27.7419355 C8.60387872,27.6833889 7.96119059,27.9136688 7.49598711,28.3717337 C7.03078363,28.8297987 6.79004463,29.4693898 6.83758389,30.1209677 L0.716778523,30.1209677 C0.716778523,26.2016129 4.08322148,23.6693548 9.3261745,23.6693548 C14.5691275,23.6693548 17.9677852,26.1854839 17.9677852,30.1209677 L17.9677852,41.6935484 L11.5731544,41.6935484 L11.5731544,39.6129032 L11.2268456,39.6129032 C10.2442953,41.2258065 8.13422819,42.1048387 5.85503356,42.1048387 C2.41610738,42.1048387 0,40.266129 0,37.0967742 Z M11.5731544,35.1532258 L11.5731544,34.0564516 L8.74630872,34.4677419 C6.87785235,34.7096774 6.12885906,35.4274194 6.12885906,36.4435484 C6.12885906,37.4596774 6.93422819,38.25 8.33557047,38.25 C9.18957825,38.2974244 10.0245965,37.9857667 10.6392559,37.3901849 C11.2539154,36.7946031 11.5924261,35.9691554 11.5731544,35.1129032 L11.5731544,35.1532258 Z" id="Shape" fill="#FFFFFF"></path>
                    <path d="M41.1785235,32.9032258 C41.1785235,38.4919355 38.0134228,42.1370968 33.4228188,42.1370968 C31.4092201,42.2257834 29.4876119,41.2879679 28.3167785,39.6451613 L27.9785235,39.6451613 L27.9785235,49.5322581 L21.6080537,49.5322581 L21.6080537,24.1129032 L27.9785235,24.1129032 L27.9785235,26.1532258 L28.3167785,26.1532258 C29.4695702,24.5117078 31.3807183,23.5746254 33.3825503,23.6693548 C38.0456376,23.6693548 41.1785235,27.2419355 41.1785235,32.9032258 Z M27.704698,32.9032258 C27.6362006,33.8930025 27.9753817,34.8677043 28.6433161,35.600525 C29.3112504,36.3333456 30.2496907,36.7603792 31.2402685,36.7822581 C33.3181208,36.7822581 34.7838926,35.1129032 34.7838926,32.9032258 C34.7838926,30.6935484 33.3181208,29.0322581 31.2402685,29.0322581 C30.2511887,29.0542538 29.3140812,29.48018 28.6463977,30.2112024 C27.9787142,30.9422248 27.6384992,31.9147926 27.704698,32.9032258 L27.704698,32.9032258 Z" id="Shape" fill="#FFFFFF"></path>
                    <path d="M63.8818792,32.9032258 C63.8818792,38.4919355 60.7167785,42.1370968 56.1181208,42.1370968 C54.1048325,42.2242878 52.183899,41.2868016 51.0120805,39.6451613 L50.6738255,39.6451613 L50.6738255,49.5322581 L44.295302,49.5322581 L44.295302,24.1129032 L50.6577181,24.1129032 L50.6577181,26.1532258 L50.9959732,26.1532258 C52.1533624,24.5127841 54.0661113,23.5764056 56.0697987,23.6693548 C60.7489933,23.6693548 63.8818792,27.2419355 63.8818792,32.9032258 Z M50.4,32.9032258 C50.3313423,33.8971203 50.6737558,34.8755702 51.3469521,35.6091508 C52.0201483,36.3427314 52.9649173,36.7669216 53.9597315,36.7822581 C56.0295302,36.7822581 57.495302,35.1129032 57.495302,32.9032258 C57.495302,30.6935484 56.0134228,29.0322581 53.9597315,29.0322581 C52.9664154,29.0477218 52.0229861,29.470808 51.3500439,30.2025872 C50.6771016,30.9343664 50.3336509,31.9106755 50.4,32.9032258 Z" id="Shape" fill="#FFFFFF"></path>
                    <polygon id="Path" fill="#FFFFFF" points="67.0067114 16.2741935 73.3771812 16.2741935 73.3771812 41.6935484 67.0067114 41.6935484"></polygon>
                    <path d="M76.8805369,18.6935484 C76.8312774,17.2142632 77.6841164,15.8532526 79.0357382,15.2541515 C80.38736,14.6550505 81.9668892,14.9379235 83.0273512,15.9689972 C84.0878132,17.0000709 84.4166834,18.5727102 83.8584358,19.9431988 C83.3001882,21.3136875 81.9667001,22.207369 80.4885906,22.2016129 C79.5343391,22.2561515 78.6009394,21.9077226 77.9152075,21.2409942 C77.2294755,20.5742658 76.854187,19.6502739 76.8805369,18.6935484 L76.8805369,18.6935484 Z M77.3154362,24.1129032 L83.6778523,24.1129032 L83.6778523,41.6935484 L77.3154362,41.6935484 L77.3154362,24.1129032 Z" id="Shape" fill="#FFFFFF"></path>
                    <path d="M86.8832215,32.9032258 C86.8832215,27.1451613 90.7328859,23.6693548 96.8214765,23.6693548 C102.910067,23.6693548 106.727517,27.1774194 106.727517,32.9032258 C106.727517,38.6290323 102.845638,42.1370968 96.8214765,42.1370968 C90.7973154,42.1370968 86.8832215,38.6290323 86.8832215,32.9032258 Z M100.365101,32.9032258 C100.365101,30.6209677 98.8993289,29.016129 96.8214765,29.016129 C94.7436242,29.016129 93.285906,30.6290323 93.285906,32.9032258 C93.285906,35.1774194 94.7114094,36.7822581 96.8214765,36.7822581 C98.9315436,36.7822581 100.365101,35.1854839 100.365101,32.9032258 L100.365101,32.9032258 Z" id="Shape" fill="#FFFFFF"></path>
                    <path d="M108.869799,38.6290323 C108.810641,37.1690424 109.643362,35.8195269 110.973786,35.2192872 C112.304211,34.6190476 113.8654,34.8885178 114.918354,35.9001425 C115.971308,36.9117673 116.30476,38.4625708 115.760867,39.8184707 C115.216975,41.1743707 113.904867,42.0633149 112.445638,42.0645161 C111.507076,42.118428 110.588445,41.7787832 109.910083,41.127047 C109.23172,40.4753109 108.854826,39.5702808 108.869799,38.6290323 Z" id="Path" fill="#FFFFFF"></path>
                    <path d="M118.389262,8.16935484 L105.75302,1.01612903 C105.254656,0.728011621 104.640646,0.728011621 104.142282,1.01612903 L91.4979866,8.16935484 C90.8597917,8.53148083 90.5465427,9.27964678 90.7360194,9.98924213 C90.9254961,10.6988375 91.5698369,11.1906192 92.3033557,11.1854839 L93.914094,11.1854839 L93.914094,21.5564516 C94.8717604,21.3476637 95.8494412,21.2448963 96.8295302,21.25 L97.1355705,21.25 L97.1355705,11.1854839 L97.1355705,11.1854839 L97.1355705,9.12096774 L104.955705,4.69354839 L112.751678,9.12096774 L112.751678,11.1854839 L112.751678,11.1854839 L112.751678,28.4112903 L108.104698,28.4112903 C108.606788,29.4212025 108.920652,30.5143708 109.030872,31.6370968 L113.557047,31.6370968 C114.891426,31.6370968 115.973154,30.5539147 115.973154,29.2177419 L115.973154,11.1854839 L117.583893,11.1854839 C118.335002,11.2102542 119.003401,10.711627 119.194631,9.98387097 C119.373863,9.26562975 119.041777,8.51743362 118.389262,8.16935484 Z" id="Path" fill="url(#linearGradient-1)"></path>
                    <path d="M104.18255,12.3951613 L100.904698,12.3951613 C100.473102,12.3951613 100.074291,12.1645981 99.8584928,11.7903226 C99.6426948,11.4160471 99.6426948,10.9549207 99.8584928,10.5806452 C100.074291,10.2063696 100.473102,9.97580645 100.904698,9.97580645 L104.18255,9.97580645 C104.84974,9.97580645 105.390604,10.5173975 105.390604,11.1854839 C105.390604,11.8535703 104.84974,12.3951613 104.18255,12.3951613 L104.18255,12.3951613 Z" id="Path" fill="#FFFFFF"></path>
                    <path d="M106.598658,16.4274194 L100.904698,16.4274194 C100.237508,16.4274194 99.6966443,15.8858283 99.6966443,15.2177419 C99.6966443,14.5496555 100.237508,14.0080645 100.904698,14.0080645 L106.598658,14.0080645 C107.265847,14.0080645 107.806711,14.5496555 107.806711,15.2177419 C107.806711,15.8858283 107.265847,16.4274194 106.598658,16.4274194 Z" id="Path" fill="#FFFFFF"></path>
                    <path d="M109.014765,20.4596774 L100.904698,20.4596774 C100.237508,20.4596774 99.6966443,19.9180864 99.6966443,19.25 C99.6966443,18.5819136 100.237508,18.0403226 100.904698,18.0403226 L109.014765,18.0403226 C109.681955,18.0403226 110.222819,18.5819136 110.222819,19.25 C110.222819,19.9180864 109.681955,20.4596774 109.014765,20.4596774 L109.014765,20.4596774 Z" id="Path" fill="#FFFFFF"></path>
                </g>
            </g>
        </g>
    </g>
</svg>